#define avg_width 8
#define avg_height 8
static unsigned char avg_bits[] = {
   0x00, 0x58, 0x24, 0x52, 0x4a, 0x24, 0x1a, 0x00 };
