#define avg_width 8
#define avg_height 8
static unsigned char avg_bits[] = {
   0xbc, 0x42, 0xa1, 0x91, 0x89, 0x85, 0x42, 0x3d };
