#define bg_light_width 8
#define bg_light_height 12
static unsigned char bg_light_bits[] = {
   0x08, 0x08, 0x08, 0x49, 0x2a, 0x1c, 0x3e, 0x00, 0x00, 0x00, 0x00, 0x00 };
