#define bg_light_width 7
#define bg_light_height 7
static unsigned char bg_light_bits[] = {
   0x55, 0x3e, 0x63, 0x22, 0x63, 0x3e, 0x55 };
