#define laser_width 8
#define laser_height 10
static unsigned char laser_bits[] = {
   0x10, 0x08, 0x10, 0x08, 0x10, 0x08, 0x3c, 0x18, 0x3c, 0x18 };
